<mxfile host="app.diagrams.net" agent="Mozilla/5.0 (X11; Linux x86_64) AppleWebKit/537.36 (KHTML, like Gecko) Chrome/128.0.0.0 Safari/537.36" version="24.7.16">
  <diagram name="Page-1" id="Z83zEJ15DWKZfaFEz4YE">
    <mxGraphModel dx="1434" dy="688" grid="1" gridSize="10" guides="1" tooltips="1" connect="1" arrows="1" fold="1" page="1" pageScale="1" pageWidth="850" pageHeight="1100" math="0" shadow="0">
      <root>
        <mxCell id="0" />
        <mxCell id="1" parent="0" />
        <mxCell id="K0d8BCokQG8zKTT9BX28-1" value="Actor" style="shape=umlActor;verticalLabelPosition=bottom;verticalAlign=top;html=1;" vertex="1" parent="1">
          <mxGeometry x="90" y="100" width="30" height="60" as="geometry" />
        </mxCell>
        <mxCell id="K0d8BCokQG8zKTT9BX28-2" value="Actor" style="shape=umlActor;verticalLabelPosition=bottom;verticalAlign=top;html=1;" vertex="1" parent="1">
          <mxGeometry x="595" y="249.95" width="30" height="60" as="geometry" />
        </mxCell>
        <mxCell id="K0d8BCokQG8zKTT9BX28-3" value="Actor" style="shape=umlActor;verticalLabelPosition=bottom;verticalAlign=top;html=1;" vertex="1" parent="1">
          <mxGeometry x="620" y="390" width="30" height="60" as="geometry" />
        </mxCell>
        <mxCell id="K0d8BCokQG8zKTT9BX28-4" value="Actor" style="shape=umlActor;verticalLabelPosition=bottom;verticalAlign=top;html=1;" vertex="1" parent="1">
          <mxGeometry x="625" y="64.82" width="30" height="60" as="geometry" />
        </mxCell>
        <mxCell id="K0d8BCokQG8zKTT9BX28-5" value="Make Appointment" style="ellipse;whiteSpace=wrap;html=1;" vertex="1" parent="1">
          <mxGeometry x="240" y="80" width="140" height="70" as="geometry" />
        </mxCell>
        <mxCell id="K0d8BCokQG8zKTT9BX28-6" value="Bill Insurance" style="ellipse;whiteSpace=wrap;html=1;" vertex="1" parent="1">
          <mxGeometry x="400" y="187.41000000000003" width="140" height="70" as="geometry" />
        </mxCell>
        <mxCell id="K0d8BCokQG8zKTT9BX28-7" value="Cancel Appointment" style="ellipse;whiteSpace=wrap;html=1;" vertex="1" parent="1">
          <mxGeometry x="230" y="170" width="140" height="70" as="geometry" />
        </mxCell>
        <mxCell id="K0d8BCokQG8zKTT9BX28-8" value="Pay bill" style="ellipse;whiteSpace=wrap;html=1;" vertex="1" parent="1">
          <mxGeometry x="240" y="360" width="140" height="70" as="geometry" />
        </mxCell>
        <mxCell id="K0d8BCokQG8zKTT9BX28-9" value="Check patient record" style="ellipse;whiteSpace=wrap;html=1;" vertex="1" parent="1">
          <mxGeometry x="390" y="300" width="140" height="70" as="geometry" />
        </mxCell>
        <mxCell id="K0d8BCokQG8zKTT9BX28-10" value="Prescribe medicine" style="ellipse;whiteSpace=wrap;html=1;" vertex="1" parent="1">
          <mxGeometry x="390" y="500" width="140" height="70" as="geometry" />
        </mxCell>
        <mxCell id="K0d8BCokQG8zKTT9BX28-11" value="Request medication" style="ellipse;whiteSpace=wrap;html=1;" vertex="1" parent="1">
          <mxGeometry x="230" y="260" width="140" height="70" as="geometry" />
        </mxCell>
        <mxCell id="K0d8BCokQG8zKTT9BX28-12" value="Order lab tests" style="ellipse;whiteSpace=wrap;html=1;" vertex="1" parent="1">
          <mxGeometry x="390" y="400" width="140" height="70" as="geometry" />
        </mxCell>
        <mxCell id="K0d8BCokQG8zKTT9BX28-17" value="" style="line;strokeWidth=2;html=1;rotation=15;" vertex="1" parent="1">
          <mxGeometry x="120.68" y="164.82" width="120" height="10" as="geometry" />
        </mxCell>
        <mxCell id="K0d8BCokQG8zKTT9BX28-18" value="" style="line;strokeWidth=2;html=1;rotation=55;" vertex="1" parent="1">
          <mxGeometry x="63.45" y="274.95" width="230" height="10" as="geometry" />
        </mxCell>
        <mxCell id="K0d8BCokQG8zKTT9BX28-21" value="" style="line;strokeWidth=2;html=1;rotation=30;" vertex="1" parent="1">
          <mxGeometry x="109.03" y="217.41" width="168.98" height="10" as="geometry" />
        </mxCell>
        <mxCell id="K0d8BCokQG8zKTT9BX28-22" value="" style="line;strokeWidth=2;html=1;rotation=-15;" vertex="1" parent="1">
          <mxGeometry x="120.68" y="100" width="120" height="44.82" as="geometry" />
        </mxCell>
        <mxCell id="K0d8BCokQG8zKTT9BX28-23" value="" style="line;strokeWidth=2;html=1;rotation=0;" vertex="1" parent="1">
          <mxGeometry x="380" y="80" width="240" height="44.82" as="geometry" />
        </mxCell>
        <mxCell id="K0d8BCokQG8zKTT9BX28-24" value="" style="line;strokeWidth=2;html=1;rotation=-15;" vertex="1" parent="1">
          <mxGeometry x="359.84" y="132.65" width="260.51" height="44.82" as="geometry" />
        </mxCell>
        <mxCell id="K0d8BCokQG8zKTT9BX28-25" value="" style="line;strokeWidth=2;html=1;rotation=-15;" vertex="1" parent="1">
          <mxGeometry x="480" y="142.59" width="175" height="44.82" as="geometry" />
        </mxCell>
        <mxCell id="K0d8BCokQG8zKTT9BX28-26" value="" style="line;strokeWidth=2;html=1;rotation=-15;" vertex="1" parent="1">
          <mxGeometry x="501.28" y="274.84" width="100" height="44.82" as="geometry" />
        </mxCell>
        <mxCell id="K0d8BCokQG8zKTT9BX28-27" value="" style="line;strokeWidth=2;html=1;rotation=30;" vertex="1" parent="1">
          <mxGeometry x="532.01" y="209.91" width="70" height="44.82" as="geometry" />
        </mxCell>
        <mxCell id="K0d8BCokQG8zKTT9BX28-28" value="" style="line;strokeWidth=2;html=1;rotation=-30;" vertex="1" parent="1">
          <mxGeometry x="510.79" y="476.28" width="128.72" height="44.82" as="geometry" />
        </mxCell>
        <mxCell id="K0d8BCokQG8zKTT9BX28-29" value="" style="line;strokeWidth=2;html=1;rotation=0;" vertex="1" parent="1">
          <mxGeometry x="510.79" y="390" width="109.21" height="44.82" as="geometry" />
        </mxCell>
      </root>
    </mxGraphModel>
  </diagram>
</mxfile>
